<?xml version="1.0" standalone="no"?>
<!DOCTYPE svg PUBLIC "-//W3C//DTD SVG 20010904//EN"
 "http://www.w3.org/TR/2001/REC-SVG-20010904/DTD/svg10.dtd">
<svg version="1.0" xmlns="http://www.w3.org/2000/svg"
 width="500.000000pt" height="500.000000pt" viewBox="0 0 500.000000 500.000000"
 preserveAspectRatio="xMidYMid meet">

<g transform="translate(0.000000,500.000000) scale(0.100000,-0.100000)"
fill="#000000" stroke="none">
<path d="M2340 3289 l0 -411 -33 43 c-41 54 -96 92 -167 116 -47 16 -90 18
-315 18 l-260 0 -3 -648 -2 -648 322 3 c307 3 326 5 379 26 80 32 142 90 181
170 31 62 33 74 33 167 0 95 -2 103 -34 163 -19 35 -47 74 -63 88 l-30 24 141
0 141 0 0 260 0 260 220 0 220 0 0 130 0 130 -220 0 -220 0 0 130 0 130 230 0
230 0 0 130 0 130 -375 0 -375 0 0 -411z m-320 -478 c100 -53 103 -183 6 -255
-20 -15 -46 -22 -102 -24 l-74 -4 0 151 0 151 68 0 c46 0 78 -6 102 -19z m317
-397 c-5 -5 -106 39 -107 46 0 3 14 14 30 24 17 10 41 33 53 51 l22 34 3 -76
c2 -41 1 -77 -1 -79z m-279 -124 c76 -17 132 -84 132 -157 0 -41 -40 -104 -80
-127 -28 -17 -57 -22 -147 -25 l-113 -3 0 161 0 161 80 0 c43 0 101 -5 128
-10z"/>
<path d="M1300 1379 l0 -60 43 3 42 3 1 45 c2 56 -9 70 -52 70 l-34 0 0 -61z
m65 26 c0 -5 -10 -11 -22 -13 -16 -2 -23 2 -23 13 0 11 7 15 23 13 12 -2 22
-7 22 -13z m5 -50 c0 -9 -9 -15 -25 -15 -16 0 -25 6 -25 15 0 9 9 15 25 15 16
0 25 -6 25 -15z"/>
<path d="M1528 1380 c-19 -43 -23 -60 -13 -60 7 0 15 7 19 15 8 21 53 19 65
-2 5 -10 13 -15 16 -11 10 10 -36 118 -49 118 -6 0 -23 -27 -38 -60z m52 -7
c0 -7 -7 -13 -15 -13 -16 0 -19 9 -9 35 5 13 8 14 15 3 5 -7 9 -19 9 -25z"/>
<path d="M1750 1380 c0 -65 17 -83 22 -23 l3 37 25 -37 c37 -54 50 -48 50 23
0 68 -17 82 -22 18 l-3 -43 -30 42 c-16 24 -33 43 -37 43 -5 0 -8 -27 -8 -60z"/>
<path d="M1980 1380 c0 -33 4 -60 10 -60 6 0 10 6 10 13 0 6 4 19 10 27 7 12
13 9 30 -13 26 -32 49 -37 26 -4 -28 39 -29 47 -6 73 15 15 19 24 10 24 -7 0
-26 -15 -41 -32 l-28 -33 -1 33 c0 17 -4 32 -10 32 -6 0 -10 -27 -10 -60z"/>
<path d="M2350 1380 c0 -33 4 -60 10 -60 6 0 10 11 10 25 0 20 5 25 25 25 14
0 25 5 25 10 0 6 -11 10 -25 10 -16 0 -25 6 -25 15 0 10 10 15 30 15 17 0 30
5 30 10 0 6 -18 10 -40 10 l-40 0 0 -60z"/>
<path d="M2550 1380 c0 -33 4 -60 10 -60 6 0 10 27 10 60 0 33 -4 60 -10 60
-6 0 -10 -27 -10 -60z"/>
<path d="M2710 1380 c0 -65 17 -83 22 -23 l3 37 25 -37 c37 -54 50 -48 50 23
0 68 -17 82 -22 18 l-3 -43 -30 42 c-16 24 -33 43 -37 43 -5 0 -8 -27 -8 -60z"/>
<path d="M2953 1384 c-14 -30 -22 -58 -18 -62 3 -4 11 1 16 11 13 22 47 22 71
0 10 -9 20 -14 22 -12 6 7 -46 119 -56 119 -5 0 -21 -25 -35 -56z m47 -5 c0
-10 -7 -19 -15 -19 -16 0 -19 9 -9 34 8 20 24 11 24 -15z"/>
<path d="M3170 1380 c0 -33 4 -60 10 -60 6 0 10 17 10 38 l1 37 30 -37 c17
-21 35 -38 40 -38 5 0 9 27 9 60 0 68 -17 82 -22 18 l-3 -42 -29 42 c-16 23
-33 42 -37 42 -5 0 -9 -27 -9 -60z"/>
<path d="M3411 1414 c-26 -33 -26 -49 -1 -74 21 -21 56 -26 80 -10 16 11 9 13
-32 10 -34 -2 -54 30 -37 61 9 17 17 20 46 16 29 -5 33 -4 23 8 -19 23 -56 18
-79 -11z"/>
<path d="M3620 1380 l0 -60 45 0 c25 0 45 5 45 10 0 6 -16 10 -35 10 -24 0
-35 5 -35 15 0 10 10 15 30 15 17 0 30 5 30 10 0 6 -13 10 -30 10 -20 0 -30 5
-30 15 0 10 11 15 35 15 19 0 35 5 35 10 0 6 -20 10 -45 10 l-45 0 0 -60z"/>
</g>
</svg>
